<mxfile host="Electron" modified="2024-06-04T13:32:33.591Z" agent="Mozilla/5.0 (Windows NT 10.0; Win64; x64) AppleWebKit/537.36 (KHTML, like Gecko) draw.io/22.1.2 Chrome/114.0.5735.289 Electron/25.9.4 Safari/537.36" etag="yhTHKtpNEo1fgEvoZn6w" version="22.1.2" type="device">
  <diagram name="第 1 页" id="SAHKPxjK9V1qAOfatdbY">
    <mxGraphModel dx="2033" dy="809" grid="1" gridSize="10" guides="1" tooltips="1" connect="1" arrows="1" fold="1" page="1" pageScale="1" pageWidth="827" pageHeight="1169" math="0" shadow="0">
      <root>
        <mxCell id="0" />
        <mxCell id="1" parent="0" />
        <mxCell id="AuwF1tC1Bc51M_fS1eCY-50" value="" style="rounded=1;whiteSpace=wrap;html=1;arcSize=9;opacity=70;fillColor=#f5f5f5;fontColor=#333333;strokeColor=#7EA6E0;strokeWidth=2;dashed=1;" parent="1" vertex="1">
          <mxGeometry x="-20" y="5" width="770" height="580" as="geometry" />
        </mxCell>
        <mxCell id="AuwF1tC1Bc51M_fS1eCY-1" value="&lt;span style=&quot;font-size: 19px;&quot;&gt;&lt;b&gt;&lt;font face=&quot;Lucida Console&quot;&gt;Manager&lt;br&gt;&lt;/font&gt;&lt;/b&gt;&lt;/span&gt;" style="text;html=1;align=center;verticalAlign=middle;resizable=0;points=[];autosize=1;strokeColor=#666666;fillColor=#f5f5f5;fontColor=#333333;rounded=1;" parent="1" vertex="1">
          <mxGeometry x="140" y="370" width="110" height="40" as="geometry" />
        </mxCell>
        <mxCell id="AuwF1tC1Bc51M_fS1eCY-2" value="&lt;span style=&quot;font-size: 19px;&quot;&gt;&lt;b&gt;&lt;font face=&quot;Lucida Console&quot;&gt;Reporter&lt;br&gt;&lt;/font&gt;&lt;/b&gt;&lt;/span&gt;" style="text;html=1;align=center;verticalAlign=middle;resizable=0;points=[];autosize=1;strokeColor=#b85450;fillColor=#f8cecc;rounded=1;" parent="1" vertex="1">
          <mxGeometry x="40" y="440" width="120" height="40" as="geometry" />
        </mxCell>
        <mxCell id="AuwF1tC1Bc51M_fS1eCY-3" value="&lt;span style=&quot;font-size: 19px;&quot;&gt;&lt;b&gt;&lt;font face=&quot;Lucida Console&quot;&gt;Receiver&lt;br&gt;&lt;/font&gt;&lt;/b&gt;&lt;/span&gt;" style="text;html=1;align=center;verticalAlign=middle;resizable=0;points=[];autosize=1;strokeColor=#82b366;fillColor=#d5e8d4;rounded=1;" parent="1" vertex="1">
          <mxGeometry x="230" y="440" width="120" height="40" as="geometry" />
        </mxCell>
        <mxCell id="AuwF1tC1Bc51M_fS1eCY-7" style="edgeStyle=orthogonalEdgeStyle;rounded=0;orthogonalLoop=1;jettySize=auto;html=1;entryX=-0.006;entryY=0.433;entryDx=0;entryDy=0;entryPerimeter=0;curved=1;fillColor=#f8cecc;strokeColor=#b85450;strokeWidth=3;endArrow=block;endFill=1;" parent="1" source="AuwF1tC1Bc51M_fS1eCY-2" target="AuwF1tC1Bc51M_fS1eCY-1" edge="1">
          <mxGeometry relative="1" as="geometry" />
        </mxCell>
        <mxCell id="AuwF1tC1Bc51M_fS1eCY-11" style="edgeStyle=orthogonalEdgeStyle;rounded=0;orthogonalLoop=1;jettySize=auto;html=1;entryX=1;entryY=0.4;entryDx=0;entryDy=0;entryPerimeter=0;curved=1;startArrow=block;startFill=1;endArrow=none;endFill=0;fillColor=#d5e8d4;strokeColor=#82b366;strokeWidth=3;" parent="1" source="AuwF1tC1Bc51M_fS1eCY-3" target="AuwF1tC1Bc51M_fS1eCY-1" edge="1">
          <mxGeometry relative="1" as="geometry" />
        </mxCell>
        <mxCell id="AuwF1tC1Bc51M_fS1eCY-14" style="edgeStyle=orthogonalEdgeStyle;rounded=0;orthogonalLoop=1;jettySize=auto;html=1;startArrow=block;startFill=1;endArrow=block;endFill=1;fillColor=#e1d5e7;strokeColor=#9673a6;strokeWidth=3;" parent="1" source="AuwF1tC1Bc51M_fS1eCY-15" target="AuwF1tC1Bc51M_fS1eCY-18" edge="1">
          <mxGeometry relative="1" as="geometry" />
        </mxCell>
        <mxCell id="AuwF1tC1Bc51M_fS1eCY-15" value="&lt;span style=&quot;font-size: 19px;&quot;&gt;&lt;b&gt;&lt;font face=&quot;Lucida Console&quot;&gt;Manager&lt;br&gt;&lt;/font&gt;&lt;/b&gt;&lt;/span&gt;" style="text;html=1;align=center;verticalAlign=middle;resizable=0;points=[];autosize=1;strokeColor=#666666;fillColor=#f5f5f5;fontColor=#333333;rounded=1;" parent="1" vertex="1">
          <mxGeometry x="510" y="370" width="110" height="40" as="geometry" />
        </mxCell>
        <mxCell id="AuwF1tC1Bc51M_fS1eCY-16" value="&lt;span style=&quot;font-size: 19px;&quot;&gt;&lt;b&gt;&lt;font face=&quot;Lucida Console&quot;&gt;Reporter&lt;br&gt;&lt;/font&gt;&lt;/b&gt;&lt;/span&gt;" style="text;html=1;align=center;verticalAlign=middle;resizable=0;points=[];autosize=1;strokeColor=#b85450;fillColor=#f8cecc;rounded=1;" parent="1" vertex="1">
          <mxGeometry x="410" y="440" width="120" height="40" as="geometry" />
        </mxCell>
        <mxCell id="AuwF1tC1Bc51M_fS1eCY-17" value="&lt;span style=&quot;font-size: 19px;&quot;&gt;&lt;b&gt;&lt;font face=&quot;Lucida Console&quot;&gt;Receiver&lt;br&gt;&lt;/font&gt;&lt;/b&gt;&lt;/span&gt;" style="text;html=1;align=center;verticalAlign=middle;resizable=0;points=[];autosize=1;strokeColor=#82b366;fillColor=#d5e8d4;rounded=1;" parent="1" vertex="1">
          <mxGeometry x="600" y="440" width="120" height="40" as="geometry" />
        </mxCell>
        <mxCell id="AuwF1tC1Bc51M_fS1eCY-18" value="&lt;span style=&quot;font-size: 19px;&quot;&gt;&lt;b&gt;&lt;font face=&quot;Lucida Console&quot;&gt;data&lt;br&gt;&lt;/font&gt;&lt;/b&gt;&lt;/span&gt;" style="text;html=1;align=center;verticalAlign=middle;resizable=0;points=[];autosize=1;strokeColor=#9673a6;fillColor=#e1d5e7;rounded=1;" parent="1" vertex="1">
          <mxGeometry x="530" y="270" width="70" height="40" as="geometry" />
        </mxCell>
        <mxCell id="AuwF1tC1Bc51M_fS1eCY-19" style="edgeStyle=orthogonalEdgeStyle;rounded=0;orthogonalLoop=1;jettySize=auto;html=1;entryX=-0.006;entryY=0.433;entryDx=0;entryDy=0;entryPerimeter=0;curved=1;fillColor=#f8cecc;strokeColor=#b85450;strokeWidth=3;endArrow=block;endFill=1;" parent="1" source="AuwF1tC1Bc51M_fS1eCY-16" target="AuwF1tC1Bc51M_fS1eCY-15" edge="1">
          <mxGeometry relative="1" as="geometry" />
        </mxCell>
        <mxCell id="AuwF1tC1Bc51M_fS1eCY-20" style="edgeStyle=orthogonalEdgeStyle;rounded=0;orthogonalLoop=1;jettySize=auto;html=1;entryX=1;entryY=0.4;entryDx=0;entryDy=0;entryPerimeter=0;curved=1;startArrow=block;startFill=1;endArrow=none;endFill=0;fillColor=#d5e8d4;strokeColor=#82b366;strokeWidth=3;" parent="1" source="AuwF1tC1Bc51M_fS1eCY-17" target="AuwF1tC1Bc51M_fS1eCY-15" edge="1">
          <mxGeometry relative="1" as="geometry" />
        </mxCell>
        <mxCell id="AuwF1tC1Bc51M_fS1eCY-21" style="edgeStyle=orthogonalEdgeStyle;rounded=0;orthogonalLoop=1;jettySize=auto;html=1;entryX=0.532;entryY=1.004;entryDx=0;entryDy=0;entryPerimeter=0;dashed=1;strokeWidth=3;fillColor=#f5f5f5;strokeColor=#666666;" parent="1" source="AuwF1tC1Bc51M_fS1eCY-3" target="AuwF1tC1Bc51M_fS1eCY-16" edge="1">
          <mxGeometry relative="1" as="geometry">
            <Array as="points">
              <mxPoint x="300" y="520" />
              <mxPoint x="474" y="520" />
            </Array>
          </mxGeometry>
        </mxCell>
        <mxCell id="AuwF1tC1Bc51M_fS1eCY-23" value="&lt;b&gt;&lt;font color=&quot;#ea6b66&quot; face=&quot;Lucida Console&quot; style=&quot;font-size: 18px;&quot;&gt;SubView&lt;/font&gt;&lt;/b&gt;" style="text;html=1;align=center;verticalAlign=middle;resizable=0;points=[];autosize=1;strokeColor=none;fillColor=none;" parent="1" vertex="1">
          <mxGeometry x="10" y="380" width="100" height="40" as="geometry" />
        </mxCell>
        <mxCell id="AuwF1tC1Bc51M_fS1eCY-24" value="&lt;b&gt;&lt;font color=&quot;#97d077&quot; face=&quot;Lucida Console&quot; style=&quot;font-size: 18px;&quot;&gt;SubView&lt;/font&gt;&lt;/b&gt;" style="text;html=1;align=center;verticalAlign=middle;resizable=0;points=[];autosize=1;strokeColor=none;fillColor=none;" parent="1" vertex="1">
          <mxGeometry x="280" y="380" width="100" height="40" as="geometry" />
        </mxCell>
        <mxCell id="AuwF1tC1Bc51M_fS1eCY-25" style="edgeStyle=orthogonalEdgeStyle;rounded=0;orthogonalLoop=1;jettySize=auto;html=1;startArrow=block;startFill=1;endArrow=block;endFill=1;fillColor=#e1d5e7;strokeColor=#9673a6;strokeWidth=3;" parent="1" source="AuwF1tC1Bc51M_fS1eCY-26" target="AuwF1tC1Bc51M_fS1eCY-29" edge="1">
          <mxGeometry relative="1" as="geometry" />
        </mxCell>
        <mxCell id="AuwF1tC1Bc51M_fS1eCY-26" value="&lt;span style=&quot;font-size: 19px;&quot;&gt;&lt;b&gt;&lt;font face=&quot;Lucida Console&quot;&gt;Manager&lt;br&gt;&lt;/font&gt;&lt;/b&gt;&lt;/span&gt;" style="text;html=1;align=center;verticalAlign=middle;resizable=0;points=[];autosize=1;strokeColor=#666666;fillColor=#f5f5f5;fontColor=#333333;rounded=1;" parent="1" vertex="1">
          <mxGeometry x="440" y="110" width="110" height="40" as="geometry" />
        </mxCell>
        <mxCell id="AuwF1tC1Bc51M_fS1eCY-27" value="&lt;span style=&quot;font-size: 19px;&quot;&gt;&lt;b&gt;&lt;font face=&quot;Lucida Console&quot;&gt;Reporter&lt;br&gt;&lt;/font&gt;&lt;/b&gt;&lt;/span&gt;" style="text;html=1;align=center;verticalAlign=middle;resizable=0;points=[];autosize=1;strokeColor=#b85450;fillColor=#f8cecc;rounded=1;" parent="1" vertex="1">
          <mxGeometry x="320" y="170" width="120" height="40" as="geometry" />
        </mxCell>
        <mxCell id="AuwF1tC1Bc51M_fS1eCY-28" value="&lt;span style=&quot;font-size: 19px;&quot;&gt;&lt;b&gt;&lt;font face=&quot;Lucida Console&quot;&gt;Receiver&lt;br&gt;&lt;/font&gt;&lt;/b&gt;&lt;/span&gt;" style="text;html=1;align=center;verticalAlign=middle;resizable=0;points=[];autosize=1;strokeColor=#82b366;fillColor=#d5e8d4;rounded=1;" parent="1" vertex="1">
          <mxGeometry x="540" y="170" width="120" height="40" as="geometry" />
        </mxCell>
        <mxCell id="AuwF1tC1Bc51M_fS1eCY-29" value="&lt;span style=&quot;font-size: 19px;&quot;&gt;&lt;b&gt;&lt;font face=&quot;Lucida Console&quot;&gt;data&lt;br&gt;&lt;/font&gt;&lt;/b&gt;&lt;/span&gt;" style="text;html=1;align=center;verticalAlign=middle;resizable=0;points=[];autosize=1;strokeColor=#9673a6;fillColor=#e1d5e7;rounded=1;" parent="1" vertex="1">
          <mxGeometry x="460" y="20" width="70" height="40" as="geometry" />
        </mxCell>
        <mxCell id="AuwF1tC1Bc51M_fS1eCY-30" style="edgeStyle=orthogonalEdgeStyle;rounded=0;orthogonalLoop=1;jettySize=auto;html=1;entryX=-0.006;entryY=0.433;entryDx=0;entryDy=0;entryPerimeter=0;curved=1;fillColor=#f8cecc;strokeColor=#b85450;strokeWidth=3;endArrow=block;endFill=1;" parent="1" source="AuwF1tC1Bc51M_fS1eCY-27" target="AuwF1tC1Bc51M_fS1eCY-26" edge="1">
          <mxGeometry relative="1" as="geometry" />
        </mxCell>
        <mxCell id="AuwF1tC1Bc51M_fS1eCY-31" style="edgeStyle=orthogonalEdgeStyle;rounded=0;orthogonalLoop=1;jettySize=auto;html=1;entryX=1;entryY=0.4;entryDx=0;entryDy=0;entryPerimeter=0;curved=1;startArrow=block;startFill=1;endArrow=none;endFill=0;fillColor=#d5e8d4;strokeColor=#82b366;strokeWidth=3;" parent="1" source="AuwF1tC1Bc51M_fS1eCY-28" target="AuwF1tC1Bc51M_fS1eCY-26" edge="1">
          <mxGeometry relative="1" as="geometry" />
        </mxCell>
        <mxCell id="AuwF1tC1Bc51M_fS1eCY-32" style="edgeStyle=orthogonalEdgeStyle;rounded=0;orthogonalLoop=1;jettySize=auto;html=1;startArrow=none;startFill=0;endArrow=block;endFill=1;fillColor=#dae8fc;strokeColor=#6c8ebf;strokeWidth=3;exitX=0.485;exitY=0.001;exitDx=0;exitDy=0;exitPerimeter=0;entryX=0;entryY=0.5;entryDx=0;entryDy=0;entryPerimeter=0;curved=1;dashed=1;" parent="1" source="AuwF1tC1Bc51M_fS1eCY-1" target="AuwF1tC1Bc51M_fS1eCY-27" edge="1">
          <mxGeometry relative="1" as="geometry">
            <mxPoint x="455" y="100" as="sourcePoint" />
            <mxPoint x="455" y="40" as="targetPoint" />
          </mxGeometry>
        </mxCell>
        <mxCell id="AuwF1tC1Bc51M_fS1eCY-36" value="&lt;span style=&quot;font-size: 19px;&quot;&gt;&lt;b&gt;&lt;font face=&quot;Lucida Console&quot;&gt;data&lt;br&gt;&lt;/font&gt;&lt;/b&gt;&lt;/span&gt;" style="text;html=1;align=center;verticalAlign=middle;resizable=0;points=[];autosize=1;strokeColor=#9673a6;fillColor=#e1d5e7;rounded=1;" parent="1" vertex="1">
          <mxGeometry x="40" y="270" width="70" height="40" as="geometry" />
        </mxCell>
        <mxCell id="AuwF1tC1Bc51M_fS1eCY-37" style="edgeStyle=orthogonalEdgeStyle;rounded=0;orthogonalLoop=1;jettySize=auto;html=1;startArrow=block;startFill=1;endArrow=block;endFill=1;fillColor=#e1d5e7;strokeColor=#9673a6;strokeWidth=3;curved=1;exitX=0.364;exitY=0;exitDx=0;exitDy=0;exitPerimeter=0;entryX=1.012;entryY=0.46;entryDx=0;entryDy=0;entryPerimeter=0;" parent="1" source="AuwF1tC1Bc51M_fS1eCY-1" target="AuwF1tC1Bc51M_fS1eCY-36" edge="1">
          <mxGeometry relative="1" as="geometry">
            <mxPoint x="100" y="370" as="sourcePoint" />
            <mxPoint x="100" y="310" as="targetPoint" />
          </mxGeometry>
        </mxCell>
        <mxCell id="AuwF1tC1Bc51M_fS1eCY-38" value="&lt;font size=&quot;1&quot; face=&quot;Lucida Console&quot;&gt;&lt;b style=&quot;font-size: 54px;&quot;&gt;RMR Model&lt;/b&gt;&lt;/font&gt;" style="text;whiteSpace=wrap;html=1;align=center;" parent="1" vertex="1">
          <mxGeometry x="-50" y="20" width="480" height="80" as="geometry" />
        </mxCell>
        <mxCell id="AuwF1tC1Bc51M_fS1eCY-41" style="rounded=0;orthogonalLoop=1;jettySize=auto;html=1;fillColor=#f8cecc;strokeColor=#b85450;strokeWidth=3;endArrow=block;endFill=1;" parent="1" edge="1">
          <mxGeometry relative="1" as="geometry">
            <mxPoint x="40" y="120" as="sourcePoint" />
            <mxPoint x="120" y="120.5" as="targetPoint" />
          </mxGeometry>
        </mxCell>
        <mxCell id="AuwF1tC1Bc51M_fS1eCY-42" style="rounded=0;orthogonalLoop=1;jettySize=auto;html=1;fillColor=#d5e8d4;strokeColor=#82b366;strokeWidth=3;endArrow=block;endFill=1;" parent="1" edge="1">
          <mxGeometry relative="1" as="geometry">
            <mxPoint x="40" y="160" as="sourcePoint" />
            <mxPoint x="120" y="160.5" as="targetPoint" />
          </mxGeometry>
        </mxCell>
        <mxCell id="AuwF1tC1Bc51M_fS1eCY-44" value="&lt;div style=&quot;text-align: center;&quot;&gt;&lt;span style=&quot;background-color: initial; font-size: 19px;&quot;&gt;&lt;font color=&quot;#ea6b66&quot; face=&quot;Lucida Console&quot;&gt;&lt;b&gt;Read Write&lt;/b&gt;&lt;/font&gt;&lt;/span&gt;&lt;/div&gt;" style="text;whiteSpace=wrap;html=1;" parent="1" vertex="1">
          <mxGeometry x="130" y="100" width="130" height="50" as="geometry" />
        </mxCell>
        <mxCell id="AuwF1tC1Bc51M_fS1eCY-45" value="&lt;div style=&quot;text-align: center;&quot;&gt;&lt;span style=&quot;background-color: initial; font-size: 19px;&quot;&gt;&lt;font color=&quot;#97d077&quot; face=&quot;Lucida Console&quot;&gt;&lt;b&gt;Read Only&lt;/b&gt;&lt;/font&gt;&lt;/span&gt;&lt;/div&gt;" style="text;whiteSpace=wrap;html=1;" parent="1" vertex="1">
          <mxGeometry x="130" y="140" width="130" height="50" as="geometry" />
        </mxCell>
        <mxCell id="AuwF1tC1Bc51M_fS1eCY-47" value="&lt;b&gt;&lt;font color=&quot;#7ea6e0&quot; face=&quot;Lucida Console&quot; style=&quot;font-size: 18px;&quot;&gt;Hierarchical &lt;br&gt;Data Flow&lt;/font&gt;&lt;/b&gt;" style="text;html=1;align=center;verticalAlign=middle;resizable=0;points=[];autosize=1;strokeColor=none;fillColor=none;" parent="1" vertex="1">
          <mxGeometry x="225" y="240" width="160" height="60" as="geometry" />
        </mxCell>
        <mxCell id="AuwF1tC1Bc51M_fS1eCY-48" value="&lt;font color=&quot;#666666&quot; face=&quot;Lucida Console&quot;&gt;&lt;span style=&quot;font-size: 18px;&quot;&gt;&lt;b style=&quot;&quot;&gt;Peer Relationship&lt;br&gt;Data Flow&lt;br&gt;&lt;/b&gt;&lt;/span&gt;&lt;/font&gt;" style="text;html=1;align=center;verticalAlign=middle;resizable=0;points=[];autosize=1;strokeColor=none;fillColor=none;" parent="1" vertex="1">
          <mxGeometry x="280" y="520" width="210" height="60" as="geometry" />
        </mxCell>
      </root>
    </mxGraphModel>
  </diagram>
</mxfile>
